<svg xmlns:xlink="http://www.w3.org/1999/xlink" width="24" xmlns="http://www.w3.org/2000/svg" height="24" id="screenshot-967a5d91-836a-80e8-8003-59030193e894" viewBox="0 0 24 24" style="-webkit-print-color-adjust: exact;" fill="none" version="1.1"><g id="shape-967a5d91-836a-80e8-8003-59030193e894" rx="0" ry="0" style="fill: rgb(0, 0, 0);"><g id="shape-967a5d91-836a-80e8-8003-590301947f2e" rx="0" ry="0" style="fill: rgb(0, 0, 0);"><g id="shape-967a5d91-836a-80e8-8003-590301952489"><g class="fills" id="fills-967a5d91-836a-80e8-8003-590301952489"><path rx="0" ry="0" d="M6.562,21.940C5.181,21.940,4.062,20.821,4.062,19.440L4.062,4.560C4.062,3.632,4.577,2.780,5.398,2.348C6.220,1.916,7.213,1.974,7.978,2.500L18.855,9.939C19.533,10.405,19.939,11.176,19.939,11.999C19.939,12.822,19.533,13.593,18.855,14.059L7.977,21.500C7.561,21.786,7.067,21.940,6.562,21.940ZZM6.562,3.056C6.318,3.057,6.077,3.118,5.862,3.233C5.366,3.489,5.057,4.002,5.062,4.560L5.062,19.439C5.062,19.996,5.371,20.507,5.864,20.766C6.357,21.025,6.953,20.990,7.412,20.674L18.289,13.234C18.696,12.954,18.938,12.492,18.938,11.998C18.938,11.505,18.696,11.043,18.289,10.763L7.413,3.326C7.164,3.152,6.868,3.057,6.562,3.056ZZ" style="fill: rgb(255, 255, 255); fill-opacity: 1;"/></g></g></g></g></svg>